<?xml version="1.0" encoding="UTF-8" standalone="no"?>
<!-- Created with Inkscape (http://www.inkscape.org/) -->

<svg
   xmlns:dc="http://purl.org/dc/elements/1.1/"
   xmlns:cc="http://creativecommons.org/ns#"
   xmlns:rdf="http://www.w3.org/1999/02/22-rdf-syntax-ns#"
   xmlns:svg="http://www.w3.org/2000/svg"
   xmlns="http://www.w3.org/2000/svg"
   xmlns:sodipodi="http://sodipodi.sourceforge.net/DTD/sodipodi-0.dtd"
   xmlns:inkscape="http://www.inkscape.org/namespaces/inkscape"
   width="7.3377686mm"
   height="7.3377781mm"
   viewBox="0 0 25.999968 26.000001"
   id="svg7041"
   version="1.1"
   inkscape:version="0.92.0 r"
   sodipodi:docname="geo2.svg">
  <defs
     id="defs7043" />
  <sodipodi:namedview
     id="base"
     pagecolor="#ffffff"
     bordercolor="#666666"
     borderopacity="1.0"
     inkscape:pageopacity="0.0"
     inkscape:pageshadow="2"
     inkscape:zoom="22.157224"
     inkscape:cx="12.006628"
     inkscape:cy="13.820897"
     inkscape:document-units="px"
     inkscape:current-layer="layer1"
     showgrid="false"
     fit-margin-top="0"
     fit-margin-left="0"
     fit-margin-right="0"
     fit-margin-bottom="0"
     inkscape:window-width="1920"
     inkscape:window-height="1136"
     inkscape:window-x="1600"
     inkscape:window-y="27"
     inkscape:window-maximized="1" />
  <metadata
     id="metadata7046">
    <rdf:RDF>
      <cc:Work
         rdf:about="">
        <dc:format>image/svg+xml</dc:format>
        <dc:type
           rdf:resource="http://purl.org/dc/dcmitype/StillImage" />
        <dc:title />
      </cc:Work>
    </rdf:RDF>
  </metadata>
  <g
     inkscape:label="Capa 1"
     inkscape:groupmode="layer"
     id="layer1"
     transform="translate(-99.759352,-157.8909)">
    <ellipse
       cy="171.00716"
       cx="112.92154"
       id="circle7013"
       style="opacity:1;fill:#a40000;fill-opacity:1;fill-rule:nonzero;stroke:none;stroke-width:0.06768569;stroke-linecap:round;stroke-linejoin:round;stroke-miterlimit:4;stroke-dasharray:none;stroke-dashoffset:0;stroke-opacity:1"
       rx="12.837783"
       ry="12.883751" />
    <ellipse
       style="opacity:1;fill:#ef2929;fill-opacity:1;fill-rule:nonzero;stroke:none;stroke-width:0.06768589;stroke-linecap:round;stroke-linejoin:round;stroke-miterlimit:4;stroke-dasharray:none;stroke-dashoffset:0;stroke-opacity:1"
       id="circle7017"
       cx="-49.454891"
       cy="197.8546"
       transform="matrix(0.67431857,-0.73844056,0.73603486,0.67694364,0,0)"
       rx="12.544567"
       ry="12.540664" />
    <g
       id="g4241"
       transform="matrix(0.18259463,0,0,0.18259463,167.4117,-41.064375)"
       style="fill:#ffffff">
      <path
         id="path3033"
         d="m -301.65417,1112.5479 c -6.55787,0.2524 -12.65832,1.6112 -18.33333,4.1334 -5.54897,2.3962 -10.40498,5.6717 -14.56667,9.8333 -4.0356,4.0356 -7.27054,8.8511 -9.66666,14.4 -2.27003,5.4228 -3.4,11.2944 -3.4,17.6 0,6.5578 1.20386,12.5844 3.6,18.1333 2.39613,5.549 5.67161,10.3645 9.83333,14.4 4.16169,4.0356 8.94382,7.1633 14.36667,9.4334 5.5489,2.27 11.49434,3.4333 17.8,3.4333 6.81,0 13.92431,0.8523 19.69792,-2.475 5.47236,-3.795 10.79736,-11.3837 16.03541,1.1416 1.13492,1.1351 2.52713,1.7001 4.16667,1.7001 1.63937,0 3.03156,-0.565 4.16666,-1.7001 1.13492,-1.135 1.69991,-2.527 1.7,-4.1666 v -39.9 c -9e-5,-6.3056 -1.24452,-12.251 -3.76666,-17.8 -2.39623,-5.5489 -5.67171,-10.4049 -9.83334,-14.5667 -4.16178,-4.1617 -9.01779,-7.4371 -14.56666,-9.8333 -5.42288,-2.5222 -11.18,-3.7665 -17.23334,-3.7667 z m -27.47708,30.0542 a 12.901802,12.901802 0 0 1 12.90209,12.9021 12.901802,12.901802 0 0 1 -12.90209,12.9021 12.901802,12.901802 0 0 1 -12.90208,-12.9021 12.901802,12.901802 0 0 1 12.90208,-12.9021 z m 36.26666,0 a 12.901802,12.901802 0 0 1 12.90209,12.9021 12.901802,12.901802 0 0 1 -12.90209,12.9021 12.901802,12.901802 0 0 1 -12.90208,-12.9021 12.901802,12.901802 0 0 1 12.90208,-12.9021 z"
         style="font-style:normal;font-variant:normal;font-weight:300;font-stretch:normal;font-size:177.3453064px;line-height:100%;font-family:'Arista 2.0 Light';-inkscape-font-specification:'Arista 2.0 Light, Light';text-align:center;letter-spacing:0px;word-spacing:0px;writing-mode:lr-tb;text-anchor:middle;fill:#ffffff;fill-opacity:1;stroke:none;stroke-width:1.06666672"
         inkscape:connector-curvature="0" />
      <circle
         r="4.3684688"
         cy="1155.5048"
         cx="297.13116"
         transform="scale(-1,1)"
         id="path3039"
         style="fill:#ffffff;fill-opacity:1;stroke-width:1.06666672" />
      <circle
         r="4.3684688"
         cy="1155.5048"
         cx="335.53119"
         style="fill:#ffffff;fill-opacity:1;stroke-width:1.06666672"
         id="path3041"
         transform="scale(-1,1)" />
    </g>
  </g>
</svg>
